<svg width="239" height="48" viewBox="0 0 239 48" fill="none" xmlns="http://www.w3.org/2000/svg">
<g clip-path="url(#clip0_312_683)">
<path d="M23.0441 47.8361H22.2211L21.3981 46.034H17.6534L16.8304 47.8361H16.0486L19.2171 40.9146H19.9578L23.1264 47.8361H23.0441ZM19.5052 41.8156L17.9415 45.3378H21.1101L19.5463 41.8156H19.5052Z" fill="white"/>
<path d="M25.8834 40.9556V47.8361H25.1016V40.9556H25.8834Z" fill="white"/>
<path d="M37.1587 47.9999L36.0887 46.8941C35.7595 47.2218 35.4303 47.5085 35.06 47.6723C34.6896 47.8771 34.2781 47.959 33.8255 47.959C33.3728 47.959 33.2082 47.918 32.9613 47.8361C32.7144 47.7542 32.4675 47.6313 32.2618 47.4266C32.056 47.2627 31.9326 47.058 31.8091 46.8122C31.6857 46.5665 31.6445 46.3208 31.6445 46.0341C31.6445 45.5836 31.8091 45.174 32.0972 44.8464C32.3852 44.5187 32.7967 44.232 33.3317 44.0272C33.0848 43.7406 32.9202 43.4948 32.7967 43.2491C32.6733 43.0034 32.6321 42.7576 32.6321 42.4709C32.6321 42.1842 32.6733 42.0204 32.7556 41.8156C32.8379 41.6109 32.9613 41.447 33.1259 41.2832C33.2905 41.1194 33.4551 41.0375 33.702 40.9146C33.9489 40.7917 34.1958 40.7917 34.4427 40.7917C34.6896 40.7917 34.8954 40.8327 35.1011 40.9146C35.3069 40.9965 35.4715 41.1194 35.6361 41.2423C35.8007 41.3651 35.883 41.529 36.0064 41.7337C36.1299 41.9385 36.1299 42.1433 36.1299 42.3481C36.1299 42.7986 35.9653 43.1672 35.6772 43.4539C35.3892 43.7406 34.9777 43.9863 34.4839 44.1501L36.0476 45.7474C36.2122 45.5426 36.3356 45.2969 36.5002 45.0102C36.6648 44.7235 36.7883 44.4778 36.9117 44.1911L37.5702 44.4778C37.4056 44.8054 37.2821 45.133 37.1175 45.4197C36.9529 45.7064 36.7883 45.9931 36.5825 46.2388L37.7759 47.4675L37.1998 47.918L37.1587 47.9999ZM33.7432 44.4778C33.2905 44.6416 32.9613 44.8464 32.7556 45.133C32.5498 45.3788 32.4264 45.6655 32.4264 45.9522C32.4264 46.2388 32.4264 46.3208 32.5498 46.4846C32.6321 46.6484 32.7144 46.7713 32.8379 46.8941C32.9613 47.017 33.1259 47.0989 33.2905 47.1808C33.4551 47.2627 33.6609 47.2627 33.8666 47.2627C34.1958 47.2627 34.4839 47.1808 34.7719 47.017C35.06 46.8532 35.3069 46.6484 35.5949 46.3617L33.7432 44.4778ZM35.1011 41.7747C34.9365 41.6109 34.6896 41.488 34.4016 41.488C34.1135 41.488 33.8255 41.5699 33.6609 41.7747C33.4551 41.9795 33.3728 42.1842 33.3728 42.5119C33.3728 42.8395 33.3728 42.7167 33.3728 42.7986C33.3728 42.8805 33.414 43.0034 33.4963 43.0853C33.5374 43.1672 33.6197 43.29 33.702 43.4129C33.7843 43.5358 33.9078 43.6586 34.0312 43.7815C34.4839 43.6177 34.8131 43.4539 35.0188 43.2491C35.2246 43.0443 35.348 42.7986 35.348 42.4709C35.348 42.1433 35.2657 41.9385 35.06 41.7747H35.1011Z" fill="white"/>
<path d="M47.158 41.0784C47.4461 41.1603 47.6518 41.2832 47.8576 41.406C48.0633 41.5698 48.1868 41.7337 48.3102 41.9384C48.4337 42.1432 48.4748 42.389 48.4748 42.6347C48.4748 42.8804 48.4748 43.0442 48.3925 43.249C48.3102 43.4128 48.2279 43.5767 48.1456 43.6995C48.0222 43.8224 47.9399 43.9453 47.8164 44.0272C47.693 44.1091 47.5695 44.191 47.4049 44.232C47.6107 44.2729 47.8164 44.3548 47.981 44.4777C48.1456 44.6006 48.3102 44.6825 48.4337 44.8053C48.5571 44.9282 48.6806 45.092 48.7629 45.2968C48.8452 45.4606 48.8863 45.7064 48.8863 45.9111C48.8863 46.1159 48.8452 46.4845 48.7217 46.6893C48.5983 46.8941 48.4337 47.1398 48.2279 47.3036C48.0222 47.4675 47.7341 47.5903 47.4461 47.6722C47.1169 47.7541 46.7877 47.7951 46.4173 47.7951H43.3311V40.9146H46.2527C46.5819 40.9146 46.9111 40.9555 47.1992 41.0374L47.158 41.0784ZM47.2403 43.7405C47.5284 43.5357 47.693 43.2081 47.693 42.7985C47.693 42.389 47.5695 42.1842 47.2815 41.9794C47.0346 41.7746 46.6231 41.6927 46.1293 41.6927H44.0306V44.0681H46.0881C46.5408 44.0681 46.9523 43.9453 47.2403 43.7405ZM47.6107 46.8531C47.8987 46.6483 48.0633 46.3207 48.0633 45.9521C48.0633 45.5835 47.8987 45.2558 47.6107 45.0511C47.2815 44.8463 46.8288 44.7234 46.2527 44.7234H44.0718V47.1808H46.3762C46.9111 47.1808 47.3226 47.0579 47.6107 46.8531Z" fill="white"/>
<path d="M51.0674 40.9556H51.8492V47.0989H55.7585V47.8361H51.0674V40.9556Z" fill="white"/>
<path d="M63.9062 45.7474C63.7416 46.157 63.4947 46.5666 63.1655 46.8942C62.8363 47.2218 62.466 47.4676 62.0545 47.6724C61.6018 47.8771 61.1492 47.959 60.6142 47.959C60.0793 47.959 59.6266 47.8771 59.174 47.6724C58.7213 47.4676 58.3921 47.2218 58.0629 46.8942C57.7337 46.5666 57.528 46.198 57.3634 45.7474C57.1988 45.2969 57.1165 44.8464 57.1165 44.3959C57.1165 43.9454 57.1988 43.4539 57.3634 43.0444C57.528 42.6348 57.7749 42.2253 58.1041 41.8976C58.4333 41.57 58.8036 41.3242 59.2151 41.1195C59.6678 40.9147 60.1204 40.8328 60.6554 40.8328C61.1903 40.8328 61.643 40.9147 62.0956 41.1195C62.5071 41.3242 62.8775 41.57 63.2067 41.8976C63.5359 42.2253 63.7416 42.5939 63.9062 43.0444C64.0708 43.4539 64.1531 43.9454 64.1531 44.3959C64.1531 44.8464 64.0708 45.3379 63.9062 45.7474ZM63.1655 43.2901C63.0421 42.9625 62.8363 42.6348 62.5894 42.3891C62.3425 42.1433 62.0545 41.9386 61.7253 41.7747C61.3961 41.6109 61.0257 41.529 60.6142 41.529C60.2027 41.529 59.8735 41.6109 59.5032 41.7338C59.174 41.8976 58.8859 42.1024 58.639 42.3481C58.3921 42.5939 58.2275 42.9215 58.0629 43.2491C57.8983 43.5768 57.8572 43.9454 57.8572 44.355C57.8572 44.7645 57.9395 45.1331 58.0629 45.4608C58.1864 45.7884 58.3921 46.116 58.639 46.3618C58.8859 46.6075 59.174 46.8123 59.5032 46.9761C59.8324 47.1399 60.2027 47.2218 60.6142 47.2218C61.0257 47.2218 61.3549 47.1399 61.7253 47.0171C62.0956 46.8942 62.3425 46.6485 62.5894 46.4027C62.8363 46.157 63.0009 45.8294 63.1655 45.5017C63.289 45.1741 63.3713 44.8055 63.3713 44.3959C63.3713 43.9863 63.289 43.6177 63.1655 43.2901Z" fill="white"/>
<path d="M71.807 47.2628C71.6013 47.4266 71.3955 47.5495 71.1898 47.6314C70.984 47.7543 70.7371 47.8362 70.4491 47.8771C70.2022 47.9181 69.9141 47.959 69.5849 47.959C69.0911 47.959 68.6385 47.8771 68.1858 47.6724C67.7743 47.5085 67.404 47.2218 67.0748 46.9352C66.7456 46.6075 66.5398 46.2389 66.3341 45.8294C66.1695 45.3788 66.0872 44.9283 66.0872 44.4369C66.0872 43.9454 66.1695 43.4949 66.3341 43.0444C66.4987 42.5939 66.7456 42.2253 67.0748 41.8976C67.404 41.57 67.7332 41.3242 68.1858 41.1195C68.5973 40.9147 69.0911 40.8328 69.5849 40.8328C70.0787 40.8328 70.2022 40.8328 70.4491 40.9147C70.696 40.9556 70.9429 41.0375 71.1486 41.1195C71.3544 41.2014 71.5601 41.3242 71.7659 41.4471C71.9305 41.57 72.1362 41.7338 72.3008 41.8976L71.7659 42.471C71.4778 42.1843 71.1486 41.9795 70.8194 41.7747C70.4902 41.6109 70.0787 41.529 69.5849 41.529C69.0911 41.529 68.8442 41.6109 68.515 41.7338C68.1858 41.8976 67.8978 42.0614 67.6509 42.3481C67.404 42.5939 67.2394 42.9215 67.0748 43.2491C66.9102 43.5768 66.869 43.9454 66.869 44.355C66.869 44.7645 66.9513 45.1331 67.0748 45.4608C67.1982 45.7884 67.404 46.116 67.6509 46.3618C67.8978 46.6075 68.1858 46.8123 68.515 46.9761C68.8442 47.1399 69.2146 47.1809 69.5849 47.1809C69.9553 47.1809 70.4491 47.099 70.8194 46.9352C71.1486 46.7713 71.4778 46.5256 71.807 46.198L72.3008 46.6894C72.1362 46.8532 71.9305 47.058 71.7247 47.1809L71.807 47.2628Z" fill="white"/>
<path d="M80.284 47.8361H79.2964L76.6217 44.5187L75.1403 45.9931V47.8361H74.3584V40.9556H75.1403V45.0511L79.0907 40.9556H80.0783L77.1155 43.9453L80.2017 47.8361H80.284Z" fill="white"/>
<path d="M86.9914 47.2628C86.7856 47.4266 86.5799 47.5495 86.3741 47.6314C86.1683 47.7543 85.9215 47.8362 85.6334 47.8771C85.3865 47.9181 85.0984 47.959 84.7692 47.959C84.2754 47.959 83.8228 47.8771 83.3701 47.6724C82.9586 47.5085 82.5883 47.2218 82.2591 46.9352C81.9299 46.6075 81.7241 46.2389 81.5184 45.8294C81.3538 45.3788 81.2715 44.9283 81.2715 44.4369C81.2715 43.9454 81.3538 43.4949 81.5184 43.0444C81.683 42.5939 81.9299 42.2253 82.2591 41.8976C82.5883 41.57 82.9175 41.3242 83.3701 41.1195C83.7816 40.9147 84.2754 40.8328 84.7692 40.8328C85.263 40.8328 85.3865 40.8328 85.6334 40.9147C85.8803 40.9556 86.1272 41.0375 86.333 41.1195C86.5387 41.2014 86.7445 41.3242 86.9502 41.4471C87.1148 41.57 87.3206 41.7338 87.4852 41.8976L86.9502 42.471C86.6622 42.1843 86.333 41.9795 86.0038 41.7747C85.6745 41.6109 85.263 41.529 84.7692 41.529C84.2754 41.529 84.0285 41.6109 83.6993 41.7338C83.3701 41.8976 83.0821 42.0614 82.8352 42.3481C82.5883 42.5939 82.4237 42.9215 82.2591 43.2491C82.0945 43.5768 82.0533 43.9454 82.0533 44.355C82.0533 44.7645 82.1356 45.1331 82.2591 45.4608C82.3825 45.7884 82.5883 46.116 82.8352 46.3618C83.0821 46.6075 83.3701 46.8123 83.6993 46.9761C84.0285 47.1399 84.3989 47.1809 84.7692 47.1809C85.1396 47.1809 85.6334 47.099 86.0038 46.9352C86.333 46.7713 86.6622 46.5256 86.9914 46.198L87.4852 46.6894C87.3206 46.8532 87.1148 47.058 86.9091 47.1809L86.9914 47.2628Z" fill="white"/>
<path d="M90.3246 44.7645V47.8771H89.5427V40.9966H90.3246V44.0683H94.3161V40.9966H95.098V47.8771H94.3161V44.7645H90.3246Z" fill="white"/>
<path d="M104.151 47.8361H103.328L102.505 46.034H98.7604L97.9374 47.8361H97.1555L100.324 40.9146H101.065L104.233 47.8361H104.151ZM100.612 41.8156L99.0484 45.3378H102.217L100.653 41.8156H100.612Z" fill="white"/>
<path d="M106.99 40.9556V47.8361H106.208V40.9556H106.99Z" fill="white"/>
<path d="M114.727 40.9556H115.467V47.8361H114.85L110.406 42.1842V47.8361H109.665V40.9556H110.406L114.768 46.4846V40.9556H114.727Z" fill="white"/>
<path d="M127.072 47.2628C126.866 47.4266 126.66 47.5495 126.454 47.6314C126.249 47.7543 126.002 47.8362 125.714 47.8771C125.467 47.9181 125.179 47.959 124.85 47.959C124.356 47.959 123.903 47.8771 123.45 47.6724C123.039 47.5085 122.669 47.2218 122.339 46.9352C122.01 46.6075 121.804 46.2389 121.599 45.8294C121.434 45.3788 121.352 44.9283 121.352 44.4369C121.352 43.9454 121.434 43.4949 121.599 43.0444C121.763 42.5939 122.01 42.2253 122.339 41.8976C122.669 41.57 122.998 41.3242 123.45 41.1195C123.862 40.9147 124.356 40.8328 124.85 40.8328C125.343 40.8328 125.467 40.8328 125.714 40.9147C125.961 40.9556 126.208 41.0375 126.413 41.1195C126.619 41.2014 126.825 41.3242 127.031 41.4471C127.195 41.57 127.401 41.7338 127.565 41.8976L127.031 42.471C126.742 42.1843 126.413 41.9795 126.084 41.7747C125.755 41.6109 125.343 41.529 124.85 41.529C124.356 41.529 124.109 41.6109 123.78 41.7338C123.45 41.8976 123.162 42.0614 122.916 42.3481C122.669 42.5939 122.504 42.9215 122.339 43.2491C122.175 43.5768 122.134 43.9454 122.134 44.355C122.134 44.7645 122.216 45.1331 122.339 45.4608C122.463 45.7884 122.669 46.116 122.916 46.3618C123.162 46.6075 123.45 46.8123 123.78 46.9761C124.109 47.1399 124.479 47.1809 124.85 47.1809C125.22 47.1809 125.714 47.099 126.084 46.9352C126.413 46.7713 126.742 46.5256 127.072 46.198L127.565 46.6894C127.401 46.8532 127.195 47.058 126.989 47.1809L127.072 47.2628Z" fill="white"/>
<path d="M134.643 41.6928H130.446V44.0272H134.232V44.7235H130.446V47.1399H134.726V47.8361H129.664V40.9556H134.643V41.6518V41.6928Z" fill="white"/>
<path d="M141.639 47.8361L139.623 45.174H137.647V47.8361H136.865V40.9556H139.828C140.199 40.9556 140.569 40.9965 140.857 41.1194C141.145 41.2013 141.433 41.3651 141.639 41.5289C141.845 41.6928 142.009 41.9385 142.133 42.1842C142.256 42.43 142.297 42.7167 142.297 43.0443C142.297 43.3719 142.256 43.5767 142.174 43.8225C142.092 44.0682 141.968 44.232 141.803 44.3958C141.639 44.5597 141.433 44.6825 141.186 44.8054C140.939 44.9283 140.692 45.0102 140.446 45.0511L142.585 47.8771H141.639V47.8361ZM141.104 42.0614C140.775 41.8156 140.363 41.6928 139.787 41.6928H137.647V44.4778H139.787C140.034 44.4778 140.281 44.4778 140.487 44.3958C140.692 44.3139 140.898 44.232 141.063 44.1091C141.227 43.9863 141.351 43.8225 141.433 43.6586C141.515 43.4948 141.557 43.29 141.557 43.0443C141.557 42.5938 141.392 42.2661 141.104 42.0204V42.0614Z" fill="white"/>
<path d="M147.235 47.8361H146.453V41.6928H144.149V40.9556H149.581V41.6928H147.276V47.8361H147.235Z" fill="white"/>
<path d="M152.503 40.9556V47.8361H151.721V40.9556H152.503Z" fill="white"/>
<path d="M160.156 41.6928H155.959V44.1501H159.704V44.8464H155.959V47.8361H155.177V40.9556H160.156V41.6928Z" fill="white"/>
<path d="M163.119 40.9556V47.8361H162.337V40.9556H163.119Z" fill="white"/>
<path d="M171.185 47.2628C170.979 47.4266 170.773 47.5495 170.567 47.6314C170.362 47.7543 170.115 47.8362 169.827 47.8771C169.58 47.9181 169.292 47.959 168.963 47.959C168.469 47.959 168.016 47.8771 167.564 47.6724C167.152 47.5085 166.782 47.2218 166.452 46.9352C166.123 46.6075 165.917 46.2389 165.712 45.8294C165.547 45.3788 165.465 44.9283 165.465 44.4369C165.465 43.9454 165.547 43.4949 165.712 43.0444C165.876 42.5939 166.123 42.2253 166.452 41.8976C166.782 41.57 167.111 41.3242 167.564 41.1195C167.975 40.9147 168.469 40.8328 168.963 40.8328C169.456 40.8328 169.58 40.8328 169.827 40.9147C170.074 40.9556 170.321 41.0375 170.526 41.1195C170.732 41.2014 170.938 41.3242 171.144 41.4471C171.308 41.57 171.514 41.7338 171.679 41.8976L171.144 42.471C170.856 42.1843 170.526 41.9795 170.197 41.7747C169.868 41.6109 169.456 41.529 168.963 41.529C168.469 41.529 168.222 41.6109 167.893 41.7338C167.563 41.8976 167.275 42.0614 167.029 42.3481C166.782 42.5939 166.617 42.9215 166.452 43.2491C166.288 43.5768 166.247 43.9454 166.247 44.355C166.247 44.7645 166.329 45.1331 166.452 45.4608C166.576 45.7884 166.782 46.116 167.029 46.3618C167.275 46.6075 167.563 46.8123 167.893 46.9761C168.222 47.1399 168.592 47.1809 168.963 47.1809C169.333 47.1809 169.827 47.099 170.197 46.9352C170.526 46.7713 170.856 46.5256 171.185 46.198L171.679 46.6894C171.514 46.8532 171.308 47.058 171.102 47.1809L171.185 47.2628Z" fill="white"/>
<path d="M180.155 47.8361H179.332L178.509 46.034H174.765L173.942 47.8361H173.16L176.328 40.9146H177.069L180.238 47.8361H180.155ZM176.658 41.8156L175.094 45.3378H178.263L176.699 41.8156H176.658Z" fill="white"/>
<path d="M183.9 47.8361H183.118V41.6928H180.814V40.9556H186.246V41.6928H183.941V47.8361H183.9Z" fill="white"/>
<path d="M189.167 40.9556V47.8361H188.385V40.9556H189.167Z" fill="white"/>
<path d="M198.344 45.7474C198.179 46.157 197.932 46.5666 197.603 46.8942C197.274 47.2218 196.903 47.4676 196.492 47.6724C196.039 47.8771 195.587 47.959 195.052 47.959C194.517 47.959 194.064 47.8771 193.611 47.6724C193.159 47.4676 192.83 47.2218 192.5 46.8942C192.171 46.5666 191.965 46.198 191.801 45.7474C191.636 45.2969 191.554 44.8464 191.554 44.3959C191.554 43.9454 191.636 43.4539 191.801 43.0444C191.965 42.6348 192.212 42.2253 192.542 41.8976C192.871 41.57 193.241 41.3242 193.653 41.1195C194.105 40.9147 194.558 40.8328 195.093 40.8328C195.628 40.8328 196.08 40.9147 196.533 41.1195C196.945 41.3242 197.315 41.57 197.644 41.8976C197.973 42.2253 198.179 42.5939 198.344 43.0444C198.508 43.4539 198.591 43.9454 198.591 44.3959C198.591 44.8464 198.508 45.3379 198.344 45.7474ZM197.562 43.2901C197.438 42.9625 197.233 42.6348 196.986 42.3891C196.739 42.1433 196.451 41.9386 196.122 41.7747C195.792 41.6109 195.422 41.529 195.011 41.529C194.599 41.529 194.27 41.6109 193.9 41.7338C193.57 41.8976 193.282 42.1024 193.035 42.3481C192.788 42.5939 192.624 42.9215 192.459 43.2491C192.295 43.5768 192.254 43.9454 192.254 44.355C192.254 44.7645 192.336 45.1331 192.459 45.4608C192.583 45.7884 192.788 46.116 193.035 46.3618C193.282 46.6075 193.57 46.8123 193.9 46.9761C194.229 47.1399 194.599 47.2218 195.011 47.2218C195.422 47.2218 195.751 47.1399 196.122 47.0171C196.492 46.8942 196.739 46.6485 196.986 46.4027C197.233 46.157 197.397 45.8294 197.562 45.5017C197.685 45.1741 197.768 44.8055 197.768 44.3959C197.768 43.9863 197.685 43.6177 197.562 43.2901Z" fill="white"/>
<path d="M205.956 40.9556H206.697V47.8361H206.08L201.636 42.1842V47.8361H200.895V40.9556H201.636L205.998 46.4846V40.9556H205.956Z" fill="white"/>
<path d="M209.989 43.1263C210.03 43.2491 210.154 43.372 210.277 43.4949C210.401 43.6177 210.606 43.6997 210.853 43.7816C211.1 43.8635 211.429 43.9454 211.8 44.0273C212.582 44.1911 213.158 44.4369 213.487 44.7235C213.857 45.0102 214.022 45.4608 214.022 45.9932C214.022 46.5256 213.981 46.5666 213.857 46.8123C213.734 47.058 213.569 47.2628 213.363 47.4266C213.158 47.5904 212.911 47.7133 212.623 47.8362C212.335 47.9181 212.005 47.959 211.676 47.959C211.141 47.959 210.606 47.8771 210.154 47.6724C209.701 47.4676 209.248 47.2218 208.837 46.8532L209.331 46.2799C209.701 46.6075 210.071 46.8532 210.442 47.0171C210.812 47.1809 211.224 47.2628 211.717 47.2628C212.211 47.2628 212.54 47.1399 212.828 46.9352C213.117 46.7304 213.24 46.4437 213.24 46.0751C213.24 45.7065 213.24 45.7474 213.158 45.6246C213.117 45.5017 212.993 45.3788 212.87 45.256C212.746 45.1331 212.54 45.0512 212.335 44.9693C212.129 44.8874 211.8 44.8055 211.429 44.7235C211.018 44.6416 210.689 44.5597 210.401 44.4369C210.113 44.314 209.866 44.1911 209.66 44.0273C209.454 43.8635 209.331 43.6997 209.248 43.4949C209.166 43.2901 209.125 43.0444 209.125 42.7577C209.125 42.471 209.166 42.2253 209.29 41.9795C209.413 41.7338 209.578 41.57 209.783 41.3652C209.989 41.2014 210.236 41.0785 210.524 40.9556C210.812 40.8328 211.1 40.8328 211.429 40.8328C211.923 40.8328 212.376 40.9147 212.746 41.0375C213.117 41.1604 213.487 41.3652 213.857 41.6519L213.405 42.2662C213.075 42.0205 212.746 41.8157 212.417 41.6928C212.088 41.57 211.759 41.529 211.388 41.529C211.018 41.529 210.977 41.529 210.771 41.6109C210.606 41.6519 210.442 41.7338 210.318 41.8567C210.195 41.9386 210.071 42.0614 210.03 42.2253C209.989 42.3891 209.907 42.5119 209.907 42.6758C209.907 42.8396 209.907 43.0034 209.989 43.1263Z" fill="white"/>
<path d="M216.203 47.8361V46.8122H217.108V47.8361H216.203ZM217.108 40.9556V41.5289L216.861 45.9112H216.45L216.203 41.5289V40.9556H217.108Z" fill="white"/>
<path d="M100.489 30.2662C99.5834 30.9624 98.5958 31.5767 97.5259 32.0682C96.456 32.5597 95.3038 32.9692 94.0282 33.215C92.7525 33.4607 91.3534 33.6245 89.8308 33.6245C87.4441 33.6245 85.222 33.174 83.2057 32.3139C81.1893 31.4539 79.4199 30.2661 77.9385 28.7508C76.457 27.2354 75.3048 25.4743 74.4407 23.4266C73.6177 21.3788 73.165 19.1672 73.165 16.8327C73.165 14.4982 73.5765 12.3276 74.3995 10.2798C75.2225 8.23202 76.3747 6.42997 77.8973 4.91462C79.4199 3.39926 81.1482 2.17059 83.2057 1.26956C85.2632 0.368541 87.5264 -0.0410156 90.0366 -0.0410156C92.5468 -0.0410156 92.876 0.0818513 94.1105 0.327585C95.345 0.573319 96.456 0.94192 97.4848 1.39243C98.5135 1.84294 99.46 2.37537 100.324 2.9897C101.188 3.60404 102.011 4.30028 102.793 5.03748L99.0896 9.25591C97.7728 8.02724 96.4149 7.08526 94.9335 6.34806C93.4521 5.61086 91.8061 5.24226 89.9543 5.24226C88.1025 5.24226 86.9503 5.52895 85.6335 6.14328C84.3167 6.75762 83.1645 7.57673 82.2181 8.60062C81.2716 9.62451 80.4898 10.8532 79.996 12.2457C79.461 13.6382 79.2141 15.1535 79.2141 16.7508C79.2141 18.3481 79.461 19.8634 79.996 21.2969C80.5309 22.6894 81.2716 23.959 82.2181 24.9829C83.1645 26.0477 84.3167 26.8668 85.6335 27.4812C86.9503 28.0955 88.3906 28.3822 89.9543 28.3822C91.518 28.3822 93.6578 28.0136 95.0981 27.2354C96.5383 26.4573 97.9374 25.4334 99.3365 24.1638L103.04 27.8907C102.217 28.7917 101.312 29.5699 100.406 30.2662H100.489Z" fill="white"/>
<path d="M134.479 5.73365H116.002V14.0886H132.38V19.249H116.002V27.9316H134.726V33.092H110.282V0.573242H134.479V5.73365Z" fill="white"/>
<path d="M163.736 33.092L155.671 21.7473H148.47V33.092H142.791V0.573242H157.358C159.21 0.573242 160.897 0.818976 162.42 1.31044C163.942 1.80191 165.218 2.4572 166.247 3.35823C167.275 4.25925 168.098 5.3241 168.633 6.59372C169.209 7.86335 169.456 9.29679 169.456 10.8941C169.456 12.4913 169.251 13.4743 168.88 14.5391C168.51 15.604 167.934 16.5459 167.275 17.3651C166.576 18.1842 165.753 18.8804 164.806 19.4538C163.86 20.0272 162.79 20.4777 161.638 20.7644L170.485 33.092H163.695H163.736ZM161.844 7.08519C160.65 6.18416 159.004 5.6927 156.823 5.6927H148.429V16.6688H156.864C158.922 16.6688 160.568 16.1773 161.802 15.1944C163.037 14.2115 163.613 12.8599 163.613 11.1808C163.613 9.50157 163.037 8.02717 161.844 7.08519Z" fill="white"/>
<path d="M191.389 33.092H185.587V5.85652H175.217V0.573242H201.759V5.85652H191.389V33.092Z" fill="white"/>
<path d="M220.647 29.2423C220.195 30.1843 219.536 31.0034 218.713 31.6177C217.89 32.273 216.903 32.7235 215.791 33.0512C214.68 33.3788 213.487 33.5426 212.211 33.5426C210.936 33.5426 208.631 33.215 206.821 32.6007C205.01 31.9863 203.323 31.0853 201.759 29.8566L204.269 26.0478C205.627 27.0307 206.985 27.8088 208.343 28.3003C209.742 28.7918 211.059 29.0785 212.335 29.0785C213.611 29.0785 214.475 28.8327 215.174 28.3413C215.833 27.8498 216.162 27.2355 216.162 26.4164V26.3344C216.162 25.8839 215.997 25.4744 215.709 25.1058C215.421 24.7781 215.01 24.4505 214.475 24.2048C213.981 23.959 213.364 23.7133 212.705 23.5085C212.047 23.3037 211.347 23.099 210.607 22.8942C209.701 22.6075 208.796 22.3208 207.891 21.9522C206.985 21.6245 206.162 21.174 205.422 20.6416C204.681 20.1092 204.105 19.4129 203.611 18.6348C203.158 17.8566 202.911 16.8737 202.911 15.686V15.6041C202.911 14.4573 203.117 13.4334 203.57 12.4914C204.023 11.5495 204.64 10.7713 205.422 10.116C206.204 9.46073 207.15 8.96926 208.22 8.64161C209.29 8.31397 210.442 8.15015 211.635 8.15015C212.829 8.15015 214.763 8.39588 216.368 8.88735C217.972 9.37882 219.413 10.0751 220.73 10.9351L218.507 14.9488C217.314 14.2525 216.121 13.6792 214.927 13.2696C213.693 12.86 212.582 12.6553 211.553 12.6553C210.524 12.6553 209.619 12.901 209.002 13.3515C208.384 13.802 208.096 14.4164 208.096 15.1126V15.1945C208.096 15.645 208.261 16.0136 208.549 16.3413C208.878 16.6689 209.29 16.9556 209.784 17.2423C210.277 17.488 210.895 17.7338 211.553 17.9795C212.211 18.2252 212.911 18.43 213.652 18.6348C214.557 18.9215 215.462 19.2491 216.368 19.6177C217.273 19.9863 218.096 20.4368 218.837 20.9693C219.577 21.5017 220.153 22.157 220.647 22.9351C221.1 23.7133 221.347 24.6553 221.347 25.7611V25.843C221.347 27.1536 221.1 28.2594 220.647 29.2423Z" fill="white"/>
<path d="M32.6731 0.941895H26.0479L21.0688 12.5733H12.4684L4.93791 5.07841C5.26711 4.66886 5.43171 4.13643 5.43171 3.56305C5.43171 2.12961 4.2795 0.98285 2.83925 0.98285C1.399 0.98285 0.246791 2.12961 0.246791 3.5221C0.246791 4.91459 1.399 6.1023 2.83925 6.1023C4.2795 6.1023 3.49765 6.02039 3.7857 5.93848L11.8923 14.0067H20.4515L19.3405 16.6279H5.22596C4.89676 15.5631 3.90915 14.7439 2.7158 14.7439C1.52245 14.7439 0.123341 15.8907 0.123341 17.3241C0.123341 18.7576 1.27554 19.9044 2.7158 19.9044C4.15605 19.9044 4.89676 19.1262 5.22596 18.0204H18.7232L17.6121 20.6416H11.6042L3.49765 28.7098C3.2096 28.5869 2.8804 28.546 2.5512 28.546C1.11094 28.546 -0.0412598 29.6927 -0.0412598 31.1262C-0.0412598 32.5596 1.11094 33.7064 2.5512 33.7064C3.99145 33.7064 5.14366 32.5596 5.14366 31.1262C5.14366 29.6927 4.93791 30.0204 4.64986 29.6108L12.1803 22.116H16.9537L11.9746 33.7474H19.2993L22.3033 26.4573H36.1297L39.1337 33.7474H46.6641L32.6731 0.941895ZM24.9369 20.0682L29.2988 9.50162L33.6607 20.0682H24.978H24.9369Z" fill="#CFA935"/>
<path d="M53.3306 33.5427V1.02393H60.5318V33.5427H53.3306Z" fill="#CFA935"/>
<path d="M225.955 2.29338V9.13297H224.063V2.29338H221.429V0.573242H228.589V2.33433H225.955V2.29338Z" fill="white"/>
<path d="M237.107 9.17392V3.563L234.679 7.24901H234.638L232.251 3.60396V9.17392H230.4V0.573242H232.457L234.72 4.21829L236.984 0.573242H239.041V9.17392H237.148H237.107Z" fill="white"/>
</g>
<defs>
<clipPath id="clip0_312_683">
<rect width="239" height="48" fill="white"/>
</clipPath>
</defs>
</svg>
